<?xml version="1.0" encoding="UTF-8" standalone="no"?>
<svg
   xmlns:dc="http://purl.org/dc/elements/1.1/"
   xmlns:cc="http://creativecommons.org/ns#"
   xmlns:rdf="http://www.w3.org/1999/02/22-rdf-syntax-ns#"
   xmlns:svg="http://www.w3.org/2000/svg"
   xmlns="http://www.w3.org/2000/svg"
   xmlns:sodipodi="http://sodipodi.sourceforge.net/DTD/sodipodi-0.dtd"
   xmlns:inkscape="http://www.inkscape.org/namespaces/inkscape"
   viewBox="0 0 90 75.999999"
   height="76"
   width="90"
   xml:space="preserve"
   id="svg4565"
   version="1.1"
   sodipodi:docname="x2_logo2.svg"
   inkscape:version="0.92.1 r"><sodipodi:namedview
     pagecolor="#ffffff"
     bordercolor="#666666"
     borderopacity="1"
     objecttolerance="10"
     gridtolerance="10"
     guidetolerance="10"
     inkscape:pageopacity="0"
     inkscape:pageshadow="2"
     inkscape:window-width="1917"
     inkscape:window-height="1000"
     id="namedview4559"
     showgrid="false"
     inkscape:zoom="7.638614"
     inkscape:cx="45"
     inkscape:cy="38"
     inkscape:window-x="1"
     inkscape:window-y="26"
     inkscape:window-maximized="1"
     inkscape:current-layer="svg4565" /><metadata
     id="metadata4571"><rdf:RDF><cc:Work
         rdf:about=""><dc:format>image/svg+xml</dc:format><dc:type
           rdf:resource="http://purl.org/dc/dcmitype/StillImage" /><dc:title></dc:title></cc:Work></rdf:RDF></metadata><defs
     id="defs4569" /><g
     transform="matrix(1.3333333,0,0,-1.3333333,-151.469,125.88168)"
     id="g4573"><g
       transform="matrix(0.81101118,0,0,0.82230651,21.469504,6.6477376)"
       id="g4672"><g
         id="g4583"
         transform="matrix(0.55900984,0,0,0.55900984,134.84407,73.467395)"
         style="fill:#c5c5c5;fill-opacity:1"><path
           d="m 0,0 -35.75,59.5 h 39.5 l 11,-20 c 3.25,-7 7,-14.25 10.5,-21.25 h 1 c 2.5,7 5.75,14.25 8.5,21.25 l 8.5,20 h 38 L 45.25,-4.25 83.5,-64.5 H 44 L 32,-44 c -4,7 -7.75,14.5 -11.75,21.5 h -1 c -3,-7 -6.5,-14.25 -9.5,-21.5 L 0,-64.5 h -38 z"
           style="fill:#c5c5c5;fill-opacity:1;fill-rule:nonzero;stroke:none"
           id="path4585" /></g><path
         style="color:#000000;font-style:normal;font-variant:normal;font-weight:normal;font-stretch:normal;font-size:medium;line-height:normal;font-family:sans-serif;font-variant-ligatures:normal;font-variant-position:normal;font-variant-caps:normal;font-variant-numeric:normal;font-variant-alternates:normal;font-feature-settings:normal;text-indent:0;text-align:start;text-decoration:none;text-decoration-line:none;text-decoration-style:solid;text-decoration-color:#000000;letter-spacing:normal;word-spacing:normal;text-transform:none;writing-mode:lr-tb;direction:ltr;text-orientation:mixed;dominant-baseline:auto;baseline-shift:baseline;text-anchor:start;white-space:normal;shape-padding:0;clip-rule:nonzero;display:inline;overflow:visible;visibility:visible;opacity:1;isolation:auto;mix-blend-mode:normal;color-interpolation:sRGB;color-interpolation-filters:linearRGB;solid-color:#000000;solid-opacity:1;vector-effect:none;fill:#ffffff;fill-opacity:1;fill-rule:nonzero;stroke:none;stroke-width:1.1925;stroke-linecap:butt;stroke-linejoin:miter;stroke-miterlimit:4;stroke-dasharray:none;stroke-dashoffset:0;stroke-opacity:1;color-rendering:auto;image-rendering:auto;shape-rendering:auto;text-rendering:auto;enable-background:accumulate"
         d="m 160.15266,37.41126 v 8.359302 l 0.1878,0.175906 c 6.42984,6.039671 11.78072,11.063629 15.49614,15.251703 3.71542,4.188073 5.73208,7.546084 5.71894,10.066819 -0.009,1.726886 -0.5621,2.750323 -1.46741,3.422566 -0.9053,0.672244 -2.24689,0.984857 -3.841,0.984857 -2.8389,0 -7.62898,-1.73003 -9.99886,-4.233689 l -0.45201,-0.477769 -8.16351,9.29913 0.37013,0.393074 c 5.13485,5.430411 12.47585,7.861479 19.83175,7.861479 5.08865,0 9.72606,-1.616679 13.10397,-4.501891 3.37791,-2.885213 5.48092,-7.052863 5.48092,-12.033274 0,-4.315386 -1.02781,-7.61455 -3.0822,-10.851881 -1.87507,-2.954762 -4.69204,-5.960284 -8.25849,-9.687862 4.41493,-0.03644 5.57643,-0.04126 11.15399,-0.04126 h 0.59831 V 37.41126 Z"
         id="path4666" /><path
         style="color:#000000;font-style:normal;font-variant:normal;font-weight:normal;font-stretch:normal;font-size:medium;line-height:normal;font-family:sans-serif;font-variant-ligatures:normal;font-variant-position:normal;font-variant-caps:normal;font-variant-numeric:normal;font-variant-alternates:normal;font-feature-settings:normal;text-indent:0;text-align:start;text-decoration:none;text-decoration-line:none;text-decoration-style:solid;text-decoration-color:#000000;letter-spacing:normal;word-spacing:normal;text-transform:none;writing-mode:lr-tb;direction:ltr;text-orientation:mixed;dominant-baseline:auto;baseline-shift:baseline;text-anchor:start;white-space:normal;shape-padding:0;clip-rule:nonzero;display:inline;overflow:visible;visibility:visible;opacity:1;isolation:auto;mix-blend-mode:normal;color-interpolation:sRGB;color-interpolation-filters:linearRGB;solid-color:#000000;solid-opacity:1;vector-effect:none;fill:#ec811d;fill-opacity:1;fill-rule:nonzero;stroke:none;stroke-width:1.1925;stroke-linecap:butt;stroke-linejoin:miter;stroke-miterlimit:4;stroke-dasharray:none;stroke-dashoffset:0;stroke-opacity:1;color-rendering:auto;image-rendering:auto;shape-rendering:auto;text-rendering:auto;enable-background:accumulate"
         d="m 161.3493,37.41126 h 34.2863 v 12.045852 c -5.43215,-4.17e-4 -6.11189,-0.006 -11.93028,0.04452 l -1.38005,0.01303 0.95206,0.992458 c 4.08734,4.262584 7.09182,8.170505 9.04897,11.254602 1.95715,3.084098 2.89768,6.086034 2.89768,10.217751 0,4.650308 -1.93025,8.453483 -5.06493,11.130942 -3.13468,2.677458 -7.49065,4.215229 -12.32442,4.215229 -6.90983,0 -13.71982,-2.242867 -18.56743,-7.118764 l 6.61968,-7.541159 c 2.77441,2.59633 7.24321,4.19677 10.36025,4.19677 1.7472,0 3.3488,-0.325043 4.55614,-1.22157 1.20735,-0.896525 1.9374,-2.373726 1.9478,-4.369418 0.0163,-3.122484 -2.23891,-6.601852 -6.01699,-10.860568 -3.73771,-4.213191 -9.04649,-9.198206 -15.38478,-15.151806 z"
         id="path4593" /></g></g></svg>